<?xml version="1.0" encoding="utf-8"?>
<!-- Generator: Adobe Illustrator 24.0.2, SVG Export Plug-In . SVG Version: 6.00 Build 0)  -->
<svg version="1.1" xmlns="http://www.w3.org/2000/svg" xmlns:xlink="http://www.w3.org/1999/xlink" x="0px" y="0px"
	 viewBox="0 0 1920 1080" style="enable-background:new 0 0 1920 1080;" xml:space="preserve">
<style type="text/css">
	.st0{fill:url(#SVGID_1_);}
</style>
<g id="Layer_1">
</g>
<g id="Layer_2">
	<g>
		<path d="M913.69,771.23c-0.27-124.41-46.95-243.19-131.45-334.51l-82.09-88.71h131.89l1.64,1.82
			c34.01,37.63,82.6,59.21,133.32,59.21c50.97,0,99.73-21.76,133.76-59.7l1.19-1.33h130.9l-82.1,88.71
			c-84.13,90.91-130.47,209.2-130.47,333.07v1.44H913.69z" fill="#3b82f6"/>
	</g>
	<g>
		<path d="M699,347.51h133.26c0.6,0.66,1.19,1.32,1.79,1.98c71.33,78.92,195.3,78.69,266.34-0.49l1.34-1.5H1234
			c-27.62,29.85-55.25,59.7-82.87,89.55c-83.79,90.54-130.34,209.37-130.34,332.73v1.94H913.2c0,0,0,0,0,0
			c-0.15-124.12-47.05-243.6-131.32-334.67C754.25,407.21,726.62,377.36,699,347.51z" fill="#3b82f6"/>
	</g>
	<g>
		<path d="M1231.71,348.51l-81.32,87.87c-84.22,91.01-130.6,209.41-130.6,333.41v0.94h-105.6c-0.4-124.35-47.1-243.06-131.59-334.35
			l-27.62-29.85l-53.69-58.02h130.52l1.49,1.65c34.1,37.73,82.83,59.37,133.69,59.37c51.11,0,100-21.82,134.14-59.86l1.04-1.16
			H1231.71 M1234,347.51h-132.27l-1.34,1.5c-35.6,39.68-84.49,59.53-133.39,59.53c-48.68,0-97.37-19.68-132.95-59.04
			c-0.6-0.66-1.19-1.32-1.79-1.98H699c27.62,29.85,55.25,59.7,82.87,89.55c84.27,91.06,131.18,210.54,131.32,334.67c0,0,0,0,0,0
			h107.59v-1.94c0-123.37,46.55-242.19,130.34-332.73C1178.75,407.21,1206.38,377.36,1234,347.51L1234,347.51z" fill="#3b82f6"/>
	</g>
</g>
</svg>
