<svg xmlns="http://www.w3.org/2000/svg" xmlns:xlink="http://www.w3.org/1999/xlink" viewBox="0 0 535 424.219"><defs><style>.cls-1{fill:url(#linear-gradient);}.cls-2{fill:#00809d;}</style><linearGradient id="linear-gradient" x1="672" y1="571.619" x2="1207" y2="571.619" gradientUnits="userSpaceOnUse"><stop offset="0" stop-color="#ff7bac"/></linearGradient></defs><title>favicon</title><g id="Layer_2" data-name="Layer 2"><path class="cls-1" d="M886.693,783.229A492.742,492.742,0,0,0,755.239,448.718l-82.1-88.708h131.89l1.642,1.817a179.708,179.708,0,0,0,267.084-.487l1.193-1.33h130.9l-82.1,88.709A488.978,488.978,0,0,0,993.29,781.79v1.439Z" transform="translate(-672 -359.51)"/><path class="cls-2" d="M672,359.51H805.256l1.791,1.981c71.329,78.92,195.3,78.694,266.341-.485l1.342-1.5H1207l-82.872,89.549A489.874,489.874,0,0,0,993.79,781.79v1.938H886.2l0,0A493.583,493.583,0,0,0,754.872,449.058Z" transform="translate(-672 -359.51)"/><path d="M1204.712,360.51l-81.318,87.869A489.478,489.478,0,0,0,992.79,781.79v.939h-105.6a493.238,493.238,0,0,0-131.585-334.35l-27.624-29.85L674.288,360.51H804.812l1.494,1.652a180.207,180.207,0,0,0,267.826-.488l1.045-1.164h129.535m2.288-1H1074.73l-1.342,1.5a179.207,179.207,0,0,1-266.341.485l-1.791-1.981H672l82.872,89.548A493.583,493.583,0,0,1,886.194,783.725l0,0H993.79V781.79a489.874,489.874,0,0,1,130.338-332.731L1207,359.51Z" transform="translate(-672 -359.51)"/></g></svg>